# xmcd
#
# Track frame offsets:
#	180
#	14256
#	27989
#	40192
#	54125
#	66311
#	79077
#	89202
#	101997
#	113522
#	126190
#	137960
#	151192
#	163940
#	175718
#	187435
#
# Disc length: 2616 seconds
#
# Revision: 2
# Processed by: cddbd v1.5.1PL2 Copyright (c) Steve Scherf et al.
# Submitted via: audiograbber 1.83.01
#
DISCID=de0a3610
DTITLE=Sampler - Country Rare Roots - Country Blues
DYEAR=2005
DGENRE=Country
TTITLE0=Alfred Karnes - Called To The Foreign Field
TTITLE1=Jimmie Rodgers - Treasures Untold
TTITLE2=Woodie Brothers - Like Likker Better Than Me
TTITLE3=Ernest Phipps - Don't Grieve After Me
TTITLE4=Walker's Corbin Ramblers - Ruffles And Bustles
TTITLE5=Bob Wills - What's The Matter With The Mill
TTITLE6=Gene Autrey - El Rancho Grande
TTITLE7=Bill Boyd - Jitterburg Jive
TTITLE8=Hank Penny - Tearstaines On Your Letter
TTITLE9=Hank Penny - Time Will Tell
TTITLE10=Billy Hughes - Cocaine Blues
TTITLE11=T. Texa Tyler - My Bucket's Got A Hole In It
TTITLE12=The Miller Brothers - Shadows On My Memories
TTITLE13=Tiny Colbert - Holes In My Soles
TTITLE14=Billy Briggs - Panhandle Shuffle
TTITLE15=Tommy Mooney - Bingo Boogie
EXTD=
EXTT0=
EXTT1=
EXTT2=
EXTT3=
EXTT4=
EXTT5=
EXTT6=
EXTT7=
EXTT8=
EXTT9=
EXTT10=
EXTT11=
EXTT12=
EXTT13=
EXTT14=
EXTT15=
PLAYORDER=
